# xmcd
#
# Track frame offsets:
#	150
#	16560
#	39452
#	57704
#	69177
#	93635
#	110082
#	126614
#	139594
#	153343
#	165463
#	179926
#	195041
#	213945
#	229762
#	247522
#	263596
#	281705
#	297300
#
# Disc length: 4142 seconds
#
# Revision: 0
# Processed by: cddbd v1.4PL0 Copyright (c) Steve Scherf et al.
# Submitted via: dBpowerAMP V4.0
#
DISCID=0d102c13
DTITLE=John Williamson - This is Australia Calling (1988 - 1995)
DYEAR=1900
DGENRE=Country
TTITLE0=It's a Way of Life
TTITLE1=The Truckie's Wife
TTITLE2=Welcome All to Broome
TTITLE3=My Dad Snores
TTITLE4=Boogie With M'Baby
TTITLE5=Bill the Cat
TTITLE6=The Drover's Boy
TTITLE7=Shelter
TTITLE8=Rip Rip Woodchip
TTITLE9=Big Bad Bushranger
TTITLE10=Waratah Street
TTITLE11=Papa Whiskey November
TTITLE12=A Bushman Can't Survive
TTITLE13=A Flag of Our Own
TTITLE14=This is Australia Calling
TTITLE15=I'll Be Gone
TTITLE16=Tropical Fever
TTITLE17=Sydney 2000
TTITLE18=My Oath to Australia
EXTD=
EXTT0=
EXTT1=
EXTT2=
EXTT3=
EXTT4=
EXTT5=
EXTT6=
EXTT7=
EXTT8=
EXTT9=
EXTT10=
EXTT11=
EXTT12=
EXTT13=
EXTT14=
EXTT15=
EXTT16=
EXTT17=
EXTT18=
PLAYORDER=
